<svg width="145" height="120" viewBox="0 0 145 120" fill="none" xmlns="http://www.w3.org/2000/svg">
<path d="M9.79226 33.8255H2.5566V0H20.1151C21.1442 0 22.109 0.209396 23.0094 0.628188C23.942 1.01477 24.746 1.54631 25.4213 2.22282C26.0966 2.89933 26.6272 3.7047 27.0131 4.63893C27.4312 5.54094 27.6402 6.50738 27.6402 7.53826V15.898C27.6402 16.9289 27.4312 17.9114 27.0131 18.8456C26.6272 19.7477 26.0966 20.5369 25.4213 21.2134C24.746 21.8899 23.942 22.4376 23.0094 22.8564C22.109 23.243 21.1442 23.4362 20.1151 23.4362H9.79226V33.8255ZM9.79226 7.24832V16.1879H18.4751C19.0217 16.1879 19.472 16.0107 19.8257 15.6564C20.2116 15.2698 20.4046 14.8027 20.4046 14.255V9.18121C20.4046 8.63356 20.2116 8.18255 19.8257 7.82819C19.472 7.44161 19.0217 7.24832 18.4751 7.24832H9.79226Z" fill="white"/>
<path d="M54.953 33.8255H32.2812V0H39.5169V26.5772H54.953V33.8255Z" fill="white"/>
<path d="M64.0673 33.8255H56.4457L67.6368 0H75.2584L86.4978 33.8255H78.8762L76.995 28.2685H65.9003L64.0673 33.8255ZM71.4476 10.7758L68.3122 21.0201H74.5831L71.4476 10.7758Z" fill="white"/>
<path d="M101.931 33.8255H94.6952V19.5222L84.1311 0H92.3316L98.313 11.4523L104.343 0H112.543L101.931 19.5222V33.8255Z" fill="white"/>
<path d="M16.4008 76.9128H9.11693V50.3356H0V43.0872H25.566V50.3356H16.4008V76.9128Z" fill="white"/>
<path d="M36.0264 76.9128C34.9652 76.9128 33.9683 76.7195 33.0357 76.3329C32.1353 75.9141 31.3474 75.3664 30.672 74.6899C29.9967 74.0134 29.4661 73.2242 29.0802 72.3222C28.6943 71.3879 28.5013 70.4054 28.5013 69.3745V50.6255C28.5013 49.5946 28.6943 48.6282 29.0802 47.7262C29.4661 46.792 29.9967 45.9866 30.672 45.3101C31.3474 44.6336 32.1353 44.102 33.0357 43.7154C33.9683 43.2966 34.9652 43.0872 36.0264 43.0872H46.0599C47.089 43.0872 48.0537 43.2966 48.9541 43.7154C49.8867 44.102 50.6907 44.6336 51.366 45.3101C52.0414 45.9866 52.572 46.792 52.9579 47.7262C53.3759 48.6282 53.585 49.5946 53.585 50.6255V69.3745C53.585 70.4054 53.3759 71.3879 52.9579 72.3222C52.572 73.2242 52.0414 74.0134 51.366 74.6899C50.6907 75.3664 49.8867 75.9141 48.9541 76.3329C48.0537 76.7195 47.089 76.9128 46.0599 76.9128H36.0264ZM44.4198 69.6644C44.9665 69.6644 45.4167 69.4873 45.7705 69.1329C46.1564 68.7463 46.3493 68.2792 46.3493 67.7315V52.2685C46.3493 51.7208 46.1564 51.2698 45.7705 50.9154C45.4167 50.5289 44.9665 50.3356 44.4198 50.3356H37.6665C37.1198 50.3356 36.6535 50.5289 36.2676 50.9154C35.9139 51.2698 35.737 51.7208 35.737 52.2685V67.7315C35.737 68.2792 35.9139 68.7463 36.2676 69.1329C36.6535 69.4873 37.1198 69.6644 37.6665 69.6644H44.4198Z" fill="white"/>
<path d="M9.59931 120C8.53808 120 7.54117 119.807 6.60857 119.42C5.70813 119.001 4.92025 118.454 4.24492 117.777C3.56959 117.101 3.03898 116.311 2.65308 115.409C2.26717 114.475 2.07422 113.493 2.07422 112.462V93.7128C2.07422 92.6819 2.26717 91.7154 2.65308 90.8134C3.03898 89.8792 3.56959 89.0738 4.24492 88.3973C4.92025 87.7208 5.70813 87.1893 6.60857 86.8027C7.54117 86.3839 8.53808 86.1745 9.59931 86.1745H19.6328C20.6618 86.1745 21.6266 86.3839 22.527 86.8027C23.4596 87.1893 24.2636 87.7208 24.9389 88.3973C25.6142 89.0738 26.1449 89.8792 26.5308 90.8134C26.9488 91.7154 27.1578 92.6819 27.1578 93.7128V98.255H19.9222V95.3557C19.9222 94.8081 19.7292 94.357 19.3433 94.0027C18.9896 93.6161 18.5394 93.4228 17.9927 93.4228H11.2394C10.6927 93.4228 10.2264 93.6161 9.8405 94.0027C9.48676 94.357 9.30988 94.8081 9.30988 95.3557V110.819C9.30988 111.366 9.48676 111.834 9.8405 112.22C10.2264 112.574 10.6927 112.752 11.2394 112.752H17.9927C18.5394 112.752 18.9896 112.574 19.3433 112.22C19.7292 111.834 19.9222 111.366 19.9222 110.819V106.615H14.8572V101.299H27.1578V112.462C27.1578 113.493 26.9488 114.475 26.5308 115.409C26.1449 116.311 25.6142 117.101 24.9389 117.777C24.2636 118.454 23.4596 119.001 22.527 119.42C21.6266 119.807 20.6618 120 19.6328 120H9.59931Z" fill="white"/>
<path d="M55.3769 120H32.7052V86.1745H39.9408V112.752H55.3769V120Z" fill="white"/>
<path d="M65.9866 120C64.9254 120 63.9284 119.807 62.9958 119.42C62.0954 119.001 61.3075 118.454 60.6322 117.777C59.9569 117.101 59.4263 116.311 59.0404 115.409C58.6545 114.475 58.4615 113.493 58.4615 112.462V93.7128C58.4615 92.6819 58.6545 91.7154 59.0404 90.8134C59.4263 89.8792 59.9569 89.0738 60.6322 88.3973C61.3075 87.7208 62.0954 87.1893 62.9958 86.8027C63.9284 86.3839 64.9254 86.1745 65.9866 86.1745H76.02C77.0491 86.1745 78.0139 86.3839 78.9143 86.8027C79.8469 87.1893 80.6509 87.7208 81.3262 88.3973C82.0015 89.0738 82.5321 89.8792 82.918 90.8134C83.3361 91.7154 83.5451 92.6819 83.5451 93.7128V112.462C83.5451 113.493 83.3361 114.475 82.918 115.409C82.5321 116.311 82.0015 117.101 81.3262 117.777C80.6509 118.454 79.8469 119.001 78.9143 119.42C78.0139 119.807 77.0491 120 76.02 120H65.9866ZM74.38 112.752C74.9266 112.752 75.3769 112.574 75.7306 112.22C76.1165 111.834 76.3095 111.366 76.3095 110.819V95.3557C76.3095 94.8081 76.1165 94.357 75.7306 94.0027C75.3769 93.6161 74.9266 93.4228 74.38 93.4228H67.6267C67.08 93.4228 66.6137 93.6161 66.2278 94.0027C65.874 94.357 65.6972 94.8081 65.6972 95.3557V110.819C65.6972 111.366 65.874 111.834 66.2278 112.22C66.6137 112.574 67.08 112.752 67.6267 112.752H74.38Z" fill="white"/>
<path d="M96.3281 120H89.0925V86.1745H106.651C107.68 86.1745 108.645 86.3839 109.545 86.8027C110.478 87.1893 111.282 87.7208 111.957 88.3973C112.632 89.0738 113.163 89.8792 113.549 90.8134C113.967 91.7154 114.176 92.6819 114.176 93.7128V101.106C114.176 102.813 113.678 104.328 112.681 105.648C111.716 106.937 110.462 107.823 108.918 108.306L114.562 120H106.555L101.055 108.644H96.3281V120ZM96.3281 93.4228V101.396H105.011C105.558 101.396 106.008 101.219 106.362 100.864C106.747 100.478 106.94 100.011 106.94 99.4631V95.3557C106.94 94.8081 106.747 94.357 106.362 94.0027C106.008 93.6161 105.558 93.4228 105.011 93.4228H96.3281Z" fill="white"/>
<path d="M134.388 120H127.152V105.697L116.588 86.1745H124.788L130.77 97.6268L136.8 86.1745H145L134.388 105.697V120Z" fill="white"/>
</svg>
