<svg width="156" height="40" viewBox="0 0 156 40" fill="none" xmlns="http://www.w3.org/2000/svg">
<path d="M57.3612 39.4C56.7881 39.4 56.2498 39.2958 55.7461 39.0874C55.2599 38.8616 54.8344 38.5664 54.4697 38.2017C54.105 37.837 53.8185 37.4115 53.6101 36.9253C53.4017 36.4217 53.2975 35.892 53.2975 35.3363V32.8876H57.2049V34.4506C57.2049 34.7458 57.3004 34.9976 57.4915 35.206C57.6999 35.397 57.9517 35.4926 58.2469 35.4926H62.4148C62.7101 35.4926 62.9532 35.397 63.1442 35.206C63.3526 34.9976 63.4568 34.7458 63.4568 34.4506V33.3304C63.4568 33.0526 63.3266 32.8876 63.0661 32.8355L55.8764 30.8036C55.0949 30.5779 54.4697 30.1524 54.0008 29.5272C53.5319 28.902 53.2975 28.19 53.2975 27.3911V25.229C53.2975 24.6733 53.4017 24.1523 53.6101 23.666C53.8185 23.1624 54.105 22.7283 54.4697 22.3636C54.8344 21.9989 55.2599 21.7123 55.7461 21.5039C56.2498 21.2782 56.7881 21.1653 57.3612 21.1653H63.3005C63.8563 21.1653 64.3772 21.2782 64.8635 21.5039C65.3671 21.7123 65.8013 21.9989 66.166 22.3636C66.5307 22.7283 66.8172 23.1624 67.0256 23.666C67.2514 24.1523 67.3643 24.6733 67.3643 25.229V27.6777H63.4568V26.1147C63.4568 25.8195 63.3526 25.5764 63.1442 25.3853C62.9532 25.1769 62.7101 25.0727 62.4148 25.0727H58.2469C57.9517 25.0727 57.6999 25.1769 57.4915 25.3853C57.3004 25.5764 57.2049 25.8195 57.2049 26.1147V27.2348C57.2049 27.5127 57.3265 27.6777 57.5696 27.7298L64.7593 29.7617C65.5408 29.9874 66.166 30.4129 66.6349 31.0381C67.1211 31.6633 67.3643 32.3753 67.3643 33.1742V35.3363C67.3643 35.892 67.2514 36.4217 67.0256 36.9253C66.8172 37.4115 66.5307 37.837 66.166 38.2017C65.8013 38.5664 65.3671 38.8616 64.8635 39.0874C64.3772 39.2958 63.8563 39.4 63.3005 39.4H57.3612Z" fill="currentColor"/>
<path d="M81.6612 39.4H70.1994V21.1653H81.6612V25.0727H74.1068V28.3289H80.8797V32.2364H74.1068V35.4926H81.6612V39.4Z" fill="currentColor"/>
<path d="M89.1159 39.4H85.2084V21.1653H94.6905C95.2462 21.1653 95.7672 21.2782 96.2535 21.5039C96.7571 21.7123 97.1912 21.9989 97.5559 22.3636C97.9206 22.7283 98.2072 23.1624 98.4156 23.666C98.6413 24.1523 98.7542 24.6733 98.7542 25.229V29.2146C98.7542 30.135 98.485 30.9513 97.9467 31.6633C97.4257 32.3579 96.7484 32.8355 95.9148 33.096L98.9626 39.4H94.6384L91.6687 33.2783H89.1159V39.4ZM89.1159 25.0727V29.3709H93.8048C94.1 29.3709 94.3432 29.2754 94.5342 29.0844C94.7426 28.876 94.8468 28.6242 94.8468 28.3289V26.1147C94.8468 25.8195 94.7426 25.5764 94.5342 25.3853C94.3432 25.1769 94.1 25.0727 93.8048 25.0727H89.1159Z" fill="currentColor"/>
<path d="M105.527 39.4H101.62V21.1653H105.527V39.4Z" fill="currentColor"/>
<path d="M120.379 39.4H108.918V21.1653H120.379V25.0727H112.825V28.3289H119.598V32.2364H112.825V35.4926H120.379V39.4Z" fill="currentColor"/>
<path d="M127.548 39.4C126.974 39.4 126.436 39.2958 125.932 39.0874C125.446 38.8616 125.021 38.5664 124.656 38.2017C124.291 37.837 124.005 37.4115 123.796 36.9253C123.588 36.4217 123.484 35.892 123.484 35.3363V32.8876H127.391V34.4506C127.391 34.7458 127.487 34.9976 127.678 35.206C127.886 35.397 128.138 35.4926 128.433 35.4926H132.601C132.896 35.4926 133.14 35.397 133.331 35.206C133.539 34.9976 133.643 34.7458 133.643 34.4506V33.3304C133.643 33.0526 133.513 32.8876 133.252 32.8355L126.063 30.8036C125.281 30.5779 124.656 30.1524 124.187 29.5272C123.718 28.902 123.484 28.19 123.484 27.3911V25.229C123.484 24.6733 123.588 24.1523 123.796 23.666C124.005 23.1624 124.291 22.7283 124.656 22.3636C125.021 21.9989 125.446 21.7123 125.932 21.5039C126.436 21.2782 126.974 21.1653 127.548 21.1653H133.487C134.043 21.1653 134.564 21.2782 135.05 21.5039C135.553 21.7123 135.988 21.9989 136.352 22.3636C136.717 22.7283 137.004 23.1624 137.212 23.666C137.438 24.1523 137.551 24.6733 137.551 25.229V27.6777H133.643V26.1147C133.643 25.8195 133.539 25.5764 133.331 25.3853C133.14 25.1769 132.896 25.0727 132.601 25.0727H128.433C128.138 25.0727 127.886 25.1769 127.678 25.3853C127.487 25.5764 127.391 25.8195 127.391 26.1147V27.2348C127.391 27.5127 127.513 27.6777 127.756 27.7298L134.946 29.7617C135.727 29.9874 136.352 30.4129 136.821 31.0381C137.307 31.6633 137.551 32.3753 137.551 33.1742V35.3363C137.551 35.892 137.438 36.4217 137.212 36.9253C137.004 37.4115 136.717 37.837 136.352 38.2017C135.988 38.5664 135.553 38.8616 135.05 39.0874C134.564 39.2958 134.043 39.4 133.487 39.4H127.548Z" fill="currentColor"/>
<path d="M57.5436 18.2347C56.9705 18.2347 56.4321 18.1305 55.9285 17.9221C55.4422 17.6964 55.0168 17.4011 54.6521 17.0364C54.2874 16.6717 54.0008 16.2463 53.7924 15.76C53.584 15.2564 53.4798 14.7267 53.4798 14.171V4.06374C53.4798 3.50801 53.584 2.98702 53.7924 2.50076C54.0008 1.99714 54.2874 1.56298 54.6521 1.19828C55.0168 0.833587 55.4422 0.547042 55.9285 0.338645C56.4321 0.112882 56.9705 0 57.5436 0H62.9619C63.5176 0 64.0386 0.112882 64.5249 0.338645C65.0285 0.547042 65.4626 0.833587 65.8273 1.19828C66.192 1.56298 66.4786 1.99714 66.687 2.50076C66.9127 2.98702 67.0256 3.50801 67.0256 4.06374V14.171C67.0256 14.7267 66.9127 15.2564 66.687 15.76C66.4786 16.2463 66.192 16.6717 65.8273 17.0364C65.4626 17.4011 65.0285 17.6964 64.5249 17.9221C64.0386 18.1305 63.5176 18.2347 62.9619 18.2347H57.5436ZM62.0762 14.3273C62.3714 14.3273 62.6146 14.2318 62.8056 14.0407C63.014 13.8323 63.1182 13.5805 63.1182 13.2853V4.94942C63.1182 4.65419 63.014 4.41106 62.8056 4.22003C62.6146 4.01164 62.3714 3.90744 62.0762 3.90744H58.4293C58.134 3.90744 57.8822 4.01164 57.6738 4.22003C57.4828 4.41106 57.3873 4.65419 57.3873 4.94942V13.2853C57.3873 13.5805 57.4828 13.8323 57.6738 14.0407C57.8822 14.2318 58.134 14.3273 58.4293 14.3273H62.0762Z" fill="currentColor"/>
<path d="M73.9548 18.2347C73.3817 18.2347 72.8434 18.1305 72.3397 17.9221C71.8535 17.6964 71.428 17.4011 71.0633 17.0364C70.6986 16.6717 70.4121 16.2463 70.2037 15.76C69.9953 15.2564 69.8911 14.7267 69.8911 14.171V0H73.7985V13.2853C73.7985 13.5805 73.894 13.8323 74.0851 14.0407C74.2935 14.2318 74.5453 14.3273 74.8405 14.3273H78.7479C79.0432 14.3273 79.2863 14.2318 79.4773 14.0407C79.6857 13.8323 79.7899 13.5805 79.7899 13.2853V0H83.6974V14.171C83.6974 14.7267 83.5845 15.2564 83.3587 15.76C83.1503 16.2463 82.8638 16.6717 82.4991 17.0364C82.1344 17.4011 81.7002 17.6964 81.1966 17.9221C80.7103 18.1305 80.1893 18.2347 79.6336 18.2347H73.9548Z" fill="currentColor"/>
<path d="M94.2873 18.2347H90.3538V3.90744H85.4305V0H99.2367V3.90744H94.2873V18.2347Z" fill="currentColor"/>
<path d="M104.99 18.2347H101.082V0H104.99V7.16364H106.813L110.695 0H115.149L110.2 9.11736L115.149 18.2347H110.695L106.813 11.0711H104.99V18.2347Z" fill="currentColor"/>
<path d="M120.994 18.2347H117.087V0H120.994V18.2347Z" fill="currentColor"/>
<path d="M128.292 18.2347H124.385V0H128.605L135.117 11.0711V0H139.024V18.2347H134.778L128.292 7.16364V18.2347Z" fill="currentColor"/>
<path d="M146.071 18.2347C145.498 18.2347 144.96 18.1305 144.456 17.9221C143.97 17.6964 143.545 17.4011 143.18 17.0364C142.815 16.6717 142.529 16.2463 142.32 15.76C142.112 15.2564 142.008 14.7267 142.008 14.171V4.06374C142.008 3.50801 142.112 2.98702 142.32 2.50076C142.529 1.99714 142.815 1.56298 143.18 1.19828C143.545 0.833587 143.97 0.547042 144.456 0.338645C144.96 0.112882 145.498 0 146.071 0H151.49C152.046 0 152.566 0.112882 153.053 0.338645C153.556 0.547042 153.991 0.833587 154.355 1.19828C154.72 1.56298 155.006 1.99714 155.215 2.50076C155.441 2.98702 155.554 3.50801 155.554 4.06374V6.5124H151.646V4.94942C151.646 4.65419 151.542 4.41106 151.333 4.22003C151.142 4.01164 150.899 3.90744 150.604 3.90744H146.957C146.662 3.90744 146.41 4.01164 146.202 4.22003C146.011 4.41106 145.915 4.65419 145.915 4.94942V13.2853C145.915 13.5805 146.011 13.8323 146.202 14.0407C146.41 14.2318 146.662 14.3273 146.957 14.3273H150.604C150.899 14.3273 151.142 14.2318 151.333 14.0407C151.542 13.8323 151.646 13.5805 151.646 13.2853V11.019H148.911V8.15352H155.554V14.171C155.554 14.7267 155.441 15.2564 155.215 15.76C155.006 16.2463 154.72 16.6717 154.355 17.0364C153.991 17.4011 153.556 17.6964 153.053 17.9221C152.566 18.1305 152.046 18.2347 151.49 18.2347H146.071Z" fill="currentColor"/>
<path d="M19.5372 13.3504L14.6529 6.83802L19.5372 0.325623L24.4215 6.83802L19.5372 13.3504Z" fill="currentColor"/>
<path d="M7.32645 16.6066L12.2107 23.119L17.095 16.6066L12.2107 10.0942L7.32645 3.58183L7.32645 10.0942V16.6066Z" fill="currentColor"/>
<path d="M31.7479 16.6066L19.5372 32.8876L14.6529 26.3752L31.7479 3.58183L31.7479 10.0942L31.7479 16.6066Z" fill="currentColor"/>
<path d="M39.0744 13.3504L19.5372 39.4H29.3058L39.0744 26.3752L39.0744 13.3504Z" fill="currentColor"/>
<path d="M3.49352e-06 13.3504L19.5372 39.4H9.76859L0 26.3752L3.49352e-06 13.3504Z" fill="currentColor"/>
</svg>
